<mxfile host="app.diagrams.net" modified="2023-11-08T01:52:55.952Z" agent="Mozilla/5.0 (Macintosh; Intel Mac OS X 10_15_7) AppleWebKit/537.36 (KHTML, like Gecko) Chrome/119.0.0.0 Safari/537.36" etag="32sZzCvxH7mehDM3TgZU" version="22.0.8" type="device">
  <diagram name="Page-1" id="Nui-td80n-aQlh77R57F">
    <mxGraphModel dx="922" dy="647" grid="1" gridSize="10" guides="1" tooltips="1" connect="1" arrows="1" fold="1" page="1" pageScale="1" pageWidth="850" pageHeight="1100" math="0" shadow="0">
      <root>
        <mxCell id="0" />
        <mxCell id="1" parent="0" />
        <mxCell id="r9puiUjmGgyDkKUMW15J-5" value="" style="group" parent="1" vertex="1" connectable="0">
          <mxGeometry x="480" y="140" width="210" height="170" as="geometry" />
        </mxCell>
        <mxCell id="r9puiUjmGgyDkKUMW15J-6" value="" style="endArrow=classic;html=1;rounded=0;" parent="r9puiUjmGgyDkKUMW15J-5" edge="1">
          <mxGeometry width="50" height="50" relative="1" as="geometry">
            <mxPoint y="170" as="sourcePoint" />
            <mxPoint y="-70" as="targetPoint" />
          </mxGeometry>
        </mxCell>
        <mxCell id="r9puiUjmGgyDkKUMW15J-7" value="" style="endArrow=classic;html=1;rounded=0;" parent="r9puiUjmGgyDkKUMW15J-5" edge="1">
          <mxGeometry width="50" height="50" relative="1" as="geometry">
            <mxPoint y="170" as="sourcePoint" />
            <mxPoint x="280" y="170" as="targetPoint" />
          </mxGeometry>
        </mxCell>
        <mxCell id="r9puiUjmGgyDkKUMW15J-12" value="" style="curved=1;endArrow=none;html=1;rounded=0;endFill=0;fillColor=#f8cecc;strokeColor=#62b851;strokeWidth=2;" parent="r9puiUjmGgyDkKUMW15J-5" edge="1">
          <mxGeometry width="50" height="50" relative="1" as="geometry">
            <mxPoint x="12" y="-19" as="sourcePoint" />
            <mxPoint x="259" y="152" as="targetPoint" />
            <Array as="points">
              <mxPoint x="62" y="101" />
              <mxPoint x="152" y="141" />
            </Array>
          </mxGeometry>
        </mxCell>
        <mxCell id="r9puiUjmGgyDkKUMW15J-61" value="(x0,y0,0)" style="text;html=1;strokeColor=none;fillColor=none;align=center;verticalAlign=middle;whiteSpace=wrap;rounded=0;" parent="r9puiUjmGgyDkKUMW15J-5" vertex="1">
          <mxGeometry x="67" y="73" width="60" height="30" as="geometry" />
        </mxCell>
        <mxCell id="r9puiUjmGgyDkKUMW15J-57" value="" style="group" parent="r9puiUjmGgyDkKUMW15J-5" vertex="1" connectable="0">
          <mxGeometry x="60" y="-50" width="120" height="100" as="geometry" />
        </mxCell>
        <mxCell id="r9puiUjmGgyDkKUMW15J-51" value="ix-y" style="ellipse;whiteSpace=wrap;html=1;aspect=fixed;fillColor=#f8cecc;strokeColor=#b85450;strokeWidth=2;" parent="r9puiUjmGgyDkKUMW15J-57" vertex="1">
          <mxGeometry x="-10" y="60" width="40" height="40" as="geometry" />
        </mxCell>
        <mxCell id="r9puiUjmGgyDkKUMW15J-52" value="ix-x" style="ellipse;whiteSpace=wrap;html=1;aspect=fixed;fillColor=#f8cecc;strokeColor=#b85450;strokeWidth=2;dashed=1;" parent="r9puiUjmGgyDkKUMW15J-57" vertex="1">
          <mxGeometry x="100" y="60" width="40" height="40" as="geometry" />
        </mxCell>
        <mxCell id="fXlGZSsW1eIFUSq92M2F-2" value="" style="rounded=0;whiteSpace=wrap;html=1;fillColor=#d5e8d4;strokeColor=#82b366;dashed=1;" vertex="1" parent="r9puiUjmGgyDkKUMW15J-5">
          <mxGeometry y="101" width="80" height="69" as="geometry" />
        </mxCell>
        <mxCell id="r9puiUjmGgyDkKUMW15J-11" value="" style="endArrow=classic;html=1;rounded=0;" parent="1" edge="1">
          <mxGeometry width="50" height="50" relative="1" as="geometry">
            <mxPoint x="480" y="310" as="sourcePoint" />
            <mxPoint x="310" y="410" as="targetPoint" />
          </mxGeometry>
        </mxCell>
        <mxCell id="r9puiUjmGgyDkKUMW15J-13" value="" style="curved=1;endArrow=none;html=1;rounded=0;endFill=0;strokeWidth=2;strokeColor=#FF0000;" parent="1" edge="1">
          <mxGeometry width="50" height="50" relative="1" as="geometry">
            <mxPoint x="474" y="157" as="sourcePoint" />
            <mxPoint x="348" y="378" as="targetPoint" />
            <Array as="points">
              <mxPoint x="460" y="258" />
              <mxPoint x="450" y="298" />
              <mxPoint x="420" y="338" />
            </Array>
          </mxGeometry>
        </mxCell>
        <mxCell id="r9puiUjmGgyDkKUMW15J-20" value="" style="curved=1;endArrow=none;html=1;rounded=0;endFill=0;strokeWidth=2;strokeColor=#FF0000;" parent="1" edge="1">
          <mxGeometry width="50" height="50" relative="1" as="geometry">
            <mxPoint x="375" y="385" as="sourcePoint" />
            <mxPoint x="681" y="316" as="targetPoint" />
            <Array as="points">
              <mxPoint x="447" y="346" />
              <mxPoint x="517" y="316" />
            </Array>
          </mxGeometry>
        </mxCell>
        <mxCell id="r9puiUjmGgyDkKUMW15J-21" value="&lt;font style=&quot;font-size: 17px;&quot;&gt;ix&lt;/font&gt;" style="text;html=1;strokeColor=none;fillColor=none;align=center;verticalAlign=middle;whiteSpace=wrap;rounded=0;" parent="1" vertex="1">
          <mxGeometry x="310" y="410" width="60" height="30" as="geometry" />
        </mxCell>
        <mxCell id="r9puiUjmGgyDkKUMW15J-22" value="&lt;font style=&quot;font-size: 17px;&quot;&gt;y&lt;/font&gt;" style="text;html=1;strokeColor=none;fillColor=none;align=center;verticalAlign=middle;whiteSpace=wrap;rounded=0;" parent="1" vertex="1">
          <mxGeometry x="470" y="60" width="60" height="30" as="geometry" />
        </mxCell>
        <mxCell id="r9puiUjmGgyDkKUMW15J-23" value="&lt;font style=&quot;font-size: 17px;&quot;&gt;y&lt;/font&gt;" style="text;html=1;strokeColor=none;fillColor=none;align=center;verticalAlign=middle;whiteSpace=wrap;rounded=0;" parent="1" vertex="1">
          <mxGeometry x="470" y="60" width="60" height="30" as="geometry" />
        </mxCell>
        <mxCell id="r9puiUjmGgyDkKUMW15J-24" value="&lt;font style=&quot;font-size: 17px;&quot;&gt;x&lt;/font&gt;" style="text;html=1;strokeColor=none;fillColor=none;align=center;verticalAlign=middle;whiteSpace=wrap;rounded=0;" parent="1" vertex="1">
          <mxGeometry x="730" y="320" width="60" height="30" as="geometry" />
        </mxCell>
        <mxCell id="r9puiUjmGgyDkKUMW15J-62" value="(0,ix1,y1)" style="text;html=1;strokeColor=none;fillColor=none;align=center;verticalAlign=middle;whiteSpace=wrap;rounded=0;" parent="1" vertex="1">
          <mxGeometry x="389" y="260" width="60" height="30" as="geometry" />
        </mxCell>
        <mxCell id="r9puiUjmGgyDkKUMW15J-63" value="(x2, 0, ix2)" style="text;html=1;strokeColor=none;fillColor=none;align=center;verticalAlign=middle;whiteSpace=wrap;rounded=0;" parent="1" vertex="1">
          <mxGeometry x="489" y="326" width="60" height="30" as="geometry" />
        </mxCell>
        <mxCell id="fXlGZSsW1eIFUSq92M2F-3" value="" style="shape=parallelogram;perimeter=parallelogramPerimeter;whiteSpace=wrap;html=1;fixedSize=1;fillColor=#f8cecc;strokeColor=#b85450;dashed=1;" vertex="1" parent="1">
          <mxGeometry x="453" y="310" width="58" height="16" as="geometry" />
        </mxCell>
        <mxCell id="fXlGZSsW1eIFUSq92M2F-14" value="" style="shape=parallelogram;perimeter=parallelogramPerimeter;whiteSpace=wrap;html=1;fixedSize=1;rotation=60;direction=south;fillColor=#f8cecc;strokeColor=#b85450;dashed=1;" vertex="1" parent="1">
          <mxGeometry x="449" y="272" width="35" height="50" as="geometry" />
        </mxCell>
        <mxCell id="fXlGZSsW1eIFUSq92M2F-15" value="" style="shape=image;verticalLabelPosition=bottom;labelBackgroundColor=default;verticalAlign=top;aspect=fixed;imageAspect=0;image=data:image/png,iVBORw0KGgoAAAANSUhEUgAAAwAAAACoCAYAAABXJomQAAABWGlDQ1BJQ0MgUHJvZmlsZQAAKJF1kM0rRGEUxn/jo5mYDGVJTUlZDMmIsWQINeU2PmKUunPnS82M152LlKU9FlayYuUfICt2FnZKKXtrKSkzXefOYAY5dTq/np73dN4H6jy6UtkGIJe3zOjkmH9xKeZ3P9GMmzZaaNONghrVtIhY+Jo/6/UelzPvep1doe74wd7NWezkuXjoOdrV/vp/VFMiWTBkFqX7DWVa4AoIa1uWcnhHuN2Uo4T3HU5X+NTheIUvyp65aFj4VrjVyOgJ4UfhQLxGT9dwLrthfN7gXO9N5udnnT3SHWhMEcHPAMMMMUGIhX/8g2V/mDUU25iskiaDJW9HRVFkSQpPk8egj0B5Z7900Mn5d35VTc3AyCbU6VVtZRzOu8C3XtV65D++FFwvK93Uv1N1vTYUUsGBCntNaHyz7ZdOcF9CybTt92PbLkmG9Q9wtf4BkuZhduEIQHQAAAY6ZVhJZk1NACoAAAAIAAQBGgAFAAAAAQAAAD4BGwAFAAAAAQAAAEYBKAADAAAAAQACAACHaQAEAAAAAQAAAE4AAAAAAAAAkAAAAAEAAACQAAAAAQADkoYABwAABcIAAAB4oAIABAAAAAEAAAMAoAMABAAAAAEAAACoAAAAAEFTQ0lJAAAAQUFBRmtYamFiVlJiYkJ0RkZMMno0N2FKMjhSTzBrZWF2clprQTJsQ1Mrd0dHbHhhNGpSTkc1cTREOXVKa3pneAo2L1hZMldhOTYrNk9rN2lXbzBGQ0JTRkE0cXZRajBJU0lTaEN2QVJWaFFRSVFRQWhpQ0FKRHdrQjZsZC9FQi84CklGUWhNV3RiSmFETTdPN011VFAzenJsbnJqYWUwVlNMdHJXdElBRTcxcTNmNEl4SWs4UzBWRU1ma21SVEdWYzUKQ2tuVXlFUWtJMzZlS05TcUJYVHBwWmpiRlFpZUlqbVM4SmMzZlZ0UkdUSU5nekwwcG52dnhrMU5kOS9UdksrbAo5ZDc5Qis2Ny8vQkRuZDJQbkRwN2JuaGtUQ2JKOCtrTXpZWWxQYXRweTFYVkxuZUROQmdJSHBnZ09XdVlqK1ZECkJpUkZreTNyV2sxdDNlWXRXN2ZWYjJjQ3c4ekIxckgxYkFPcllKWE1lVzNIemwyNzk0aDc3MnBrRzlrbVZzMWMKcklZMXNCMXNGOXZOeEVoY3RvaW02aVNzR0pwaGh0Skdnb1NwU2pVU3laaEVUc2MxTXBxV1U3cWFWQldaOG5SRApDWmtTbmxaY1ZpWlNwcEhWRThkc3gySEx5Sm9LQ1pGcDJnamx0dHptY1hrUHRvY0R3WE1udXFLQllIRmpNQ01yCnBLZE41QjNjaUZVdFBYQ280OEhoVWhxNm5DYVIwcFJZZzJXSHVRNWZKQkE4WGN6WExTeTVqaHg5ZUlnTFlGRlQKMVZQTWZZWUg4SGNWZGU3UFVwbnpEUlpYNXYzSGJMOFNXRDd1NmpseHN2Y081bVQ4bE0vaVdVb3NWc3UyczdxWQpleW1hTUpSc211aTB5R0RFMDVhaG8zblpwS3Fpa1lJem1yVUk1ejRocDhnSW45cGNyZEY4VWJXQzJNUXRDVEZwCm1QelZxVmkwcnZiSXkybkx5cVhqZkdkYXB1UFcvOWRzNDFwckkxbWE3QmpOcTNxR005V1Ywa0hKckNaU1E2UzUKREJFVHFzbDEwWEo4SWl1bXlybUt5cmhzeWdybDFlbTBDNmN2Y0dhMm4yMmVQYzIyc1BxQlFMQ0hFMXdKaHNLdQpnY0hJRU1kQjlTTGh3aVI3TkRsbGNSemdpVFYyTnBldTBPMW1XOW0yZ1g1RGx4V0RLeDBkTFVlWWkvbzRqRDNLCmxleFdGYnN3WkRNM0Y3T05jU1htcmwwbGNLS2srVnpDdDZhOXNkTmJPbXNwNVJwWDdScW5LbWZnWHlnOGUvVzcKa2EvWlRoNXlRdVBIZHZQQ201dncyVldsSDJ6djhZaThBNnV5Ny9iQ3lWNjJwM1NMTjZSbzFDbEZLUy9FZURJZgoxbFZyU3M2SWsxNWZRUktqRjdKeVFweU81ZHNLTFRuN0t4NFIrK3h4ekN1dTl1b2pTU3FHVEVKOE16TXphL3ExCmlpcUhuaUwwMkpBamI2RkZMUTdGb0o1eVVQN01yTmxLbThTakpRWk9pYWM1T1JWejE5MnA0MzkxblorTSthQUMKYXFBQkpOZ0hYamdFdmRBSFp5RUlVMUNBeCtGcHVBeFg0VlY0RFY2SE4rQXRlQWZlaGV0d0E5NkhUK0V6K0FLKwpoSzlnRWI2QkpWaUI3K0ZIdUFtMzREZjRBMjZqU2xTTlJOU0sydEZoNUVjQkZFYURhQWlOSVJXWjZDSXFvRXZvClNmUU11b3hlUUZmUWkraHQ5Qjc2RUMyZ1JmUVQraG45aW00SzE0VVBoSStFajRWUGhBWGhjMkZSK0VINFJiZ2wKL0M3OEtmd2wzQmIreGc1Y2lkMjREdGZqSnR5TTkrTXVmQndQWXdXUDR3ek80VHhtK0FuOEZINE9QNCt2NEZrOApqMS9HcnpqaWpwU2pVS29KQVpYL0pkUHduK1o0N0IrWVROQmL/GIrBAAAACXBIWXMAABYlAAAWJQFJUiTwAAAIr2lUWHRYTUw6Y29tLmFkb2JlLnhtcAAAAAAAPHg6eG1wbWV0YSB4bWxuczp4PSJhZG9iZTpuczptZXRhLyIgeDp4bXB0az0iWE1QIENvcmUgNi4wLjAiPgogICA8cmRmOlJERiB4bWxuczpyZGY9Imh0dHA6Ly93d3cudzMub3JnLzE5OTkvMDIvMjItcmRmLXN5bnRheC1ucyMiPgogICAgICA8cmRmOkRlc2NyaXB0aW9uIHJkZjphYm91dD0iIgogICAgICAgICAgICB4bWxuczp0aWZmPSJodHRwOi8vbnMuYWRvYmUuY29tL3RpZmYvMS4wLyIKICAgICAgICAgICAgeG1sbnM6ZXhpZj0iaHR0cDovL25zLmFkb2JlLmNvbS9leGlmLzEuMC8iPgogICAgICAgICA8dGlmZjpZUmVzb2x1dGlvbj4xNDQ8L3RpZmY6WVJlc29sdXRpb24+CiAgICAgICAgIDx0aWZmOlhSZXNvbHV0aW9uPjE0NDwvdGlmZjpYUmVzb2x1dGlvbj4KICAgICAgICAgPHRpZmY6UmVzb2x1dGlvblVuaXQ+MjwvdGlmZjpSZXNvbHV0aW9uVW5pdD4KICAgICAgICAgPGV4aWY6UGl4ZWxZRGltZW5zaW9uPjE2ODwvZXhpZjpQaXhlbFlEaW1lbnNpb24+CiAgICAgICAgIDxleGlmOlVzZXJDb21tZW50PkFBQUZrWGphYlZSYmJCdEZGTDJ6NDdhSjI4Uk8wa2VhdnJaa0EybENTK3dHR2x4YTRqUk5HNXE0RDl1Smt6Z3gmI3hBOzYvWFkyV2E5Nis2T2s3aVdvMEZDQlNGQTRxdlFqMElTSVNoQ3ZBUlZoUVFJUVFBaGlDQUpEd2tCNmxkL0VCLzgmI3hBO0lGUWhNV3RiSmFETTdPN011VFAzenJsbnJqYWUwVlNMdHJXdElBRTcxcTNmNEl4SWs4UzBWRU1ma21SVEdWYzUmI3hBO0NrblV5RVFrSTM2ZUtOU3FCWFRwcFpqYkZRaWVJam1TOEpjM2ZWdFJHVElOZ3pMMHBudnZ4azFOZDkvVHZLK2wmI3hBOzlkNzlCKzY3Ly9CRG5kMlBuRHA3Ym5oa1RDYko4K2tNellZbFBhdHB5MVhWTG5lRE5CZ0lIcGdnT1d1WWorVkQmI3hBO0JpUkZreTNyV2sxdDNlWXRXN2ZWYjJjQ3c4ekIxckgxYkFPcllKWE1lVzNIemwyNzk0aDc3MnBrRzlrbVZzMWMmI3hBO3JJWTFzQjFzRjl2TnhFaGN0b2ltNmlTc0dKcGhodEpHZ29TcFNqVVN5WmhFVHNjMU1wcVdVN3FhVkJXWjhuUkQmI3hBO0Naa1NubFpjVmlaU3BwSFZFOGRzeDJITHlKb0tDWkZwMmdqbHR0em1jWGtQdG9jRHdYTW51cUtCWUhGak1DTXImI3hBO3BLZE41QjNjaUZVdFBYQ280OEhoVWhxNm5DYVIwcFJZZzJXSHVRNWZKQkE4WGN6WExTeTVqaHg5ZUlnTFlGRlQmI3hBOzFWUE1mWVlIOEhjVmRlN1BVcG56RFJaWDV2M0hiTDhTV0Q3dTZqbHhzdmNPNW1UOGxNL2lXVW9zVnN1MnM3cVkmI3hBO2V5bWFNSlJzbXVpMHlHREUwNWFobzNuWnBLcWlrWUl6bXJVSTV6NGhwOGdJbjlwY3JkRjhVYldDMk1RdENURnAmI3hBO21QelZxVmkwcnZiSXkybkx5cVhqZkdkYXB1UFcvOWRzNDFwckkxbWE3QmpOcTNxR005V1Ywa0hKckNaU1E2UzUmI3hBO0RCRVRxc2wxMFhKOElpdW15cm1LeXJoc3lncmwxZW0wQzZjdmNHYTJuMjJlUGMyMnNQcUJRTENIRTF3SmhzS3UmI3hBO2djSElFTWRCOVNMaHdpUjdORGxsY1J6Z2lUVjJOcGV1ME8xbVc5bTJnWDVEbHhXREt4MGRMVWVZaS9vNGpEM0smI3hBO2xleFdGYnN3WkRNM0Y3T05jU1htcmwwbGNLS2srVnpDdDZhOXNkTmJPbXNwNVJwWDdScW5LbWZnWHlnOGUvVzcmI3hBO2thL1pUaDV5UXVQSGR2UENtNXZ3MlZXbEgyenY4WWk4QTZ1eTcvYkN5VjYycDNTTE42Um8xQ2xGS1MvRWVESWYmI3hBOzFsVnJTczZJazE1ZlFSS2pGN0p5UXB5TzVkc0tMVG43S3g0UisreHh6Q3V1OXVvalNTcUdURUo4TXpNemEvcTEmI3hBO2lpcUhuaUwwMkpBamI2RkZMUTdGb0o1eVVQN01yTmxLbThTakpRWk9pYWM1T1JWejE5MnA0MzkxblorTSthQUMmI3hBO2FxQUJKTmdIWGpnRXZkQUhaeUVJVTFDQXgrRnB1QXhYNFZWNERWNkhOK0F0ZUFmZWhldHdBOTZIVCtFeitBSysmI3hBO2hLOWdFYjZCSlZpQjcrRkh1QW0zNERmNEEyNmpTbFNOUk5TSzJ0Rmg1RWNCRkVhRGFBaU5JUldaNkNJcW9Fdm8mI3hBO1NmUU11b3hlUUZmUWkraHQ5Qjc2RUMyZ1JmUVQraG45aW00SzE0VVBoSStFajRWUGhBWGhjMkZSK0VINFJiZ2wmI3hBOy9DNzhLZndsM0JiK3hnNWNpZDI0RHRmakp0eU05K011ZkJ3UFl3V1A0d3pPNFR4bStBbjhGSDRPUDQrdjRGazgmI3hBO2oxL0dyemppanBTalVLb0pBWlgvSmRQd24rWjQ3QitZVE5CYjwvZXhpZjpVc2VyQ29tbWVudD4KICAgICAgICAgPGV4aWY6UGl4ZWxYRGltZW5zaW9uPjc2ODwvZXhpZjpQaXhlbFhEaW1lbnNpb24+CiAgICAgIDwvcmRmOkRlc2NyaXB0aW9uPgogICA8L3JkZjpSREY+CjwveDp4bXBtZXRhPgog9oMKAABAAElEQVR4Ae2dB7glRZ32d8g5ZwaYAQYkKDmngQEUJChIRhEQRESHBUEWFInCIkGCgAgqQfgEVleEFUVgSENcWHJmZgDJOWe/3zv0X2p6us89oc+559z7/p/nnaquXL+u7q6q7nPn3/7NZgImYAImYAImYAImYAImYAImYAImYAImYAImYAImYAImYAImYAImYAImYALdSmAUDbsYPYReQ/ehC9FIZDMBEzABEzABEzABEzABExhABH5JX95D56Ld0K7oEvTPTGfiDkE2EzABEzABEzABEzABEzCBHiewN+1/B61a0I/RhMUi4LiCeAeZgAmYgAmYgAmYgAmYgAn0GAF96vMc2ryg3dr1vx1pEfAqmhLZTMAETGDQE2j0lajST9Fj1EbQ3q3QsB5rt5trAiZgAiZQm8D0RH+CNMHXQqDIjiYw3gKsUpTAYSZgAiYwmAhoIv839AF6A72CXkQvoOczyf8S0s7JW+gjtC8qsoMI1I1Y6V5GUZZclfE2UrxeyXbKjqKih9F/oXHo98g7QECwmYAJmEA/ErieurVr/yR6FGny/n/obvQgegI9jZRGP+Qts3eJeCCLvLUk0YdJ+ByJ314TMAETGJQEpqLXc6GpM7UKQWXpDcGMmcrKU7pO2PJUckiuom05vgz9Lhfuw8FLYG66vhtaFi2KFkZvoQmZbsS9GL2PbCZgAtUQGEMx2pSZB62PpkVh+gs+tyC5uhavRrVsdSIXQ/eUJFopC/8Y9/6SNA42ARMwgUFFYHZ6qwl5SDfceFUa7q+SeKXTK9ci08R/PqRPbkaiR5DKuA+tg4YiTbZmQJ2w3akk+pC6x3SictfR9QRmooVnoHdQOj6K/HoTdhjy2yMg2EygYgKa7Md19xT+2SosX88jTfxV/ikVluuiTMAETGBAEdCnPnEjDrfZm6Y+u1EZF/QToZFZ/dGPcPWpkm1wE5iO7l+LYkzci//f0ZfRN9BZSJ+7RXy45xM2BbKZgAlUQ0AbQnq7FtfYqdUUO7EUvd2+OSv7GdxZJ4b6HxMwARMwgckIDKQFwDT0Tp9vxINFrn7bMC+yDW4CmmSk42K7AhzrEabfsqTp5P8tspmACVRDYBTFpNfYVtUUO7GUuM4f52jxCst1USZgAiYw4AgMpAWATs7MaHektxA/RQsgmwno+/500qHd/kUKsHwnly7yrFWQ1kEmYAKNEziSLHFd6Y9EzNl4EYU5jsrKvQPXmz6FiBxoAiZgAp8RGGgLgM96Zp8JfEpAE/2YcKSuPv3J21QE6Pv/NJ38J+cT+tgETKApAjeQK66vsh/xNlqwfuelMs9H+tzPZgImYAImkBDwt8wJDHsHDQH9SVr96du8vZkP4FhvBor+aoj+WpCtOwlowqfP/2zdT0B/UGLVpJljEn+z3uPIeCD6Afo6eg+FjcWzShzYNQETMIHBSkC7m/1py1D5Ekh/jSWVJmLHozClWQktifSDsfFIf2HoWqS/7lBkCxG4Iopy9ReK5Fd+7d4+i8rs80SsjZZH+tGY/oa0/o+EOzJtizsP+i6STYv041H9kE0PG6WfEmkSErobv+rcBL2FNAHV5FKLMKXRpEXn4w8obDk8w9E7SOmHILVf5f8NpTYHB/pTesqzINKDVeW/iJ5Ht6CbUBkvoibm1+t3cQpe8qtfep2utq6KdC7mR3pdfy/6P/QY0o5bVaYf722G1FfVr/6rfDFSnHipb2NRastwMAIFM50HsRDzMUj2NroY7ayDzMbhXh0HOVfpG7GFSayx9yB6uJGMXZRW4+lzSMxvRxpLqc3FwbJI14UWSLXGFdEdM43fJ5DGxhJIY7QK01+lUX9fQI9UUaDLmEhgTf7V/S9sTHiadE8g315oK/SnXBn6C3VroNdy4T40ARMwAROAQCc/ATqT+jTByCsmE5r8Xor0EM+n0fF9SA+QItubwKI8ClunKANhmtTroZHm0wQnJp9puPwzItmWKB+XP/4eaYb1ke5d4lM7joN8OXGsiU7YvniKzlukDVeTol0jU4E7gbBIm7rPEP7v6B8l8Ur7JjoNaaJUhW1EIWkbivz/VVDRYTXypW+8tDAQi9PRLmhmVGaayOfrP7Ik8XcJ16Il0l+DXwuQXrGZaOj5SBP+6IPGzaFoCJoFXYgiTu7TaDPUDbYMjYi2VTUWD6JMLeyj3Fvxa4FUZj8mQouE3csSOPxfBI7AF1x1n0/va/9KVKfn51lZGr/7JNK99wfoMqTzOCWymYAJmIAJ5AgUTSRPyaWp91ATNN3cLyjJ8BPCH0X5CbYWAHqQa8dc+a9Fmqyth36HFBZSmqIH/faEa/c1fXBHnqIFwAKk1e6e0qhM1Tc7kmniuBiKB0yUE5PGtYm7Ht2OIi51Fac08yH5JfUxTXMPx5pYpaZFzL0oTfsUx5qAzIpk26K0HPmXR3qQfh7p4fcaStP8jOMpUN6uJuBJlKbN+8cSr4fpLugX6A2Upnme45VRq7YKBQSrdEIddd1AvPqWt28RMA5FOk0qHkI3o6I+E1zTliY2ykrdLxfkmp+w/FhWngML0nZjkMaMxpbO4R5I41vXystI/TgYaUGjc74zGopiUaj7RjdMrHQdq60foWbON9kmsW9ypDH0YyQetyGVfzYqsqhfaW4qSuCwSQjoGhcrSffAZu0UMkY5tdy7m63A+UzABExgoBPo5AIgWI7Ck79pP0aYHuI7R6LM1UNYn2Sk6X+YS5MeLptLq3zrpgky/0lJut0L4iPo+CSd2pKaJkATUNq28RwXTUQuz6X7Hsdldi0RKlN5tAubmnaw0/rkXzNNgF8LgnQRoTS16juW+HyZrxP2VZS3FQiIhVrkeY6wYfmELRyfR94oO9yNa5Q3PElfq581ivhXlBY5UWe4WgTlz4MyfLEgrfKcr8guN/XnBvQiWjLX1hM5jr7LjcWPrrs0fO5cvnYf7kgFl6J0vE/NsSbsGoOpabxchjZJA/vwL0a8NhBOTtLp3KvPjydhqVdtCiZnphEd8Os+cyg6rU36bsV9mJ7y3kfBS5P4ZmwGMumcRzm13IuaqcB5TMAETGAwEOiPBcDigC26aR9SAvzOXPpzS9IpeKZcWtVTtADQ5CfasC/+MluKiEg3Y0EitTniw40JU5p8n1y6+9PIxC828XBbOwkP7+F4op5wl4vIxP1DLt2VSVzeq29oo6xwv5RPlBxvU5D+z0l8q95lKSAYRHuuqVGoJkBKNx5NhZq1lcmoRWjUKVc73ouiIhtBYJo2/GpPt9suNFDtLVpY/SiLU/wYFHY8nuhjK7u3UV6jrt7sqH6do0NRLLRfwn83kk2DtICJ8fN3BdZpp5JO90NNMGWzIC0IVGfZAuCsLF5ptkedNI3L/EI/zk8V7juUP12FHdqAstJ2bVVh2S7KBEzABEygQQL9sQBYmDamDwL5x6F4oOe78Ldcek3ey2wmIvJlr1OQOF1U6CH6G7QFiod/muVnHPxnGpD458P/AUrrLJoM/zWXRumL2qW6FHcvKjLtUj6Dor5L8RftTucXCvq9QdnDvGgBoM9bymxKIp5A0Qa5YqjFS1V2OQWl5cu/SkHhcxGmiYriW9n917gR87TOCRxrAVjL/khkmudtjj9XK0OXxKmvt5a05TzCo0+7JGnmxH8sOgCJe5ENJfAMdBfSp2iatGsXVm+OWjVNsJ9C0bbr8Ku++5HuEXqTkV7Xj3A8CtVjWji8gfSGLUx9j7ouiMCcqzoije4FeWsnD9Wlt30btUniWaUdQWHBSgs0jSebCZiACZhAPxHolgWAJgll9j9ExINDrr7LLbN6FwB60Kdlhl/fn2tCofZoQjkv6ssuJkHkl6vJsBY5YemufpruwkiQuZqgv4SUZp8srMjRmwhNbBYriszCGpnUN5I2qjwVT9oX+X8QkRW4Whzly7+0oNxY6LxIXNHirSDLZEF6a3AFSuu7keN5Jks5eYDO2U7oXHQCWgJ1u6nN76FNShr6IOHBYsGSNEXBaxP4Nnoa7Ym0eNoRaaGhCd9+qFXTRH139ChSG1/OXPnfyvz34areKVG9NpyEum5XSjL8HX9w2DgJD+8CSbyY5a0TPPJ1dvPx9TQuePbHG6RuZuO2mYAJmEDHCXTLAqDW5LEdC4BVIJ1+jxoPpryrCc3xSJ8DlNn6ROTzHZkkVn7Fv4K0wIi0qn9uFPZ1PIrTRKZWfZF+CB4tLvQq/XCk3Wgtjh5Hr6OoJ9yyXf1mFgAHFJSvRVWVNpbCou1yNUHTZzdhWgjFBPAnEdigK4a/RlGPJqp6CzM1GshWNjnWeBQD8dAku16bg4Q6Fxrf6TlSfi2knkUqU5PiKkzt3wGl1/BLHOta0DltxrQQDBuKR+NNbX4eFfHSIiPGjd56pNZpHmnd3eifnkal5+qUBhqpa/EctGgDeZzUBEzABEygDwKalMZDLNzT+shTFh07ZueXJcjCF8aNusLdrUaediwAVN3W6AUUbajlXkW6dILA4SSmTx3S/M9wrPTabdXERHHfR7/P/JH2QI7DYsL7qwgocTWRPwY9haKccDXxvxFpERBh4SpfkTWzANiBgqLccC8vKryFsC0L6jgrKW90Fq8FUzOfE2iieGZWhvqga2EzlNriHHwTrZgGDmC/rok4n32NwxTDYVk+vQ0rsm8TqHIvLIpsIkw79VrwRlvlavFxLloGtWoxtlRufnIfZWssRv3bRWDmHpbFdYpHrvquO9wg4xG8tFCr13YiofItVW8GpzMBEzABE+ibwP0kiZtyuL/tO1thitiNPaIw9rPAblkAqEXaaf8pKppMB49wj1aGEtMPiSNduF8j7BtZ+Nu4s6H1s+NI8xjHmogul4TXmmyqPH1bHfnlamftWLQqmhLJYsKVpqtyAbAndaRly6/JV5UmLg+gtB59ujIf0uJqQhb3c9xm7FQyRdl34h9eUMihWRpNNgeDafEfTHZuoMN686R8h5TkWT2L11jVW4ZmbS0y/gVFG+XXNXQHuiUL/wT3v9HKqFkbQ8aoY/2SQh5J0sybS9MpHrlqu/bw8ISVzk8jC/abSH9XSc+GEn5GFq/74kPoIlTFb04oxmYCJmACA4OAJk15e4KApXOBmmA1ano9O0eW6Z5GM/dD+hmoU/1U/w/OtAiuHhyroC8jTcpT25KDsgnOucRpIaFX3WHaWZ8pO9BDSQ+oa5EeUp9DssXQRih2xG7Hr8lokW1C4G/QFEnkWPy7oYeTsE54db7zVtbufLp6jzUBOw6pz2HT4tkX3YcWRh+hE1GjdhIZ9skynYerBdN72XHqaCzINMmsZUOIVHt73UYlHRiT+Gt5pyNy+SxBGSdNlmXToPXQpTpo0E4n/XeyPB/g/gfSeXwUaYGtth+J9FZN16qksXIyasR0LmPx8AL+6woyL0DYiCz8QdznkzSd4jEldWpTYp6k7iq96pc+h6vCRiaF6NrVZlE9pjc9a6L9CxKvTdhf0avoCHQD0v17NPpf9APUzL2BbDYTMAETGPgENHnUxCXVuxzP2GDXv5WUEQ/GsiI0cUvrk1/tKLP/ISJNf1tZQsI14U7Tyr9OQXqVobitC+IiaDgeTbCjvE/wzxKRBe5vkrSRJ9yYUCibHlARLvdq9GYWVovDLbl8L3E8JyoyTW7TOuSfvyghYXs1kDaK+K+CPOtGZIXu1JT1VK6u1zken4Wdh9uoaVEhHh+joolFlDcMz1tIacWoyL5A4E1IE9J70d6oV02T2hgz+oSsyEYRqAVsaqtxEPk2SiMSv85jpIlJfBJdlzeuWdWviV7YG3jSNqmNzyDVdxlq1HTdR1v/UpJ5xySNFiapdYrHMCrVAjjaWrWre5IWM62aytDiOtp3Sp0FasPqDqQ+zpfLMwfHWkR8iEbk4rQgehapPi0SbCZgAiZgAgUEpifsRRQ353D1gKvXliKhJmXKqx2ZvqwbFgCaMKi9WlzUsqFEBhNNGLUDXWarEhFpU1e7+qnNxsE7KE0jv3ayZkBFpp1TTTLTPJqEl5kmxmla+RtZAKjfZbYgEVokpuU/x3Gji8ay8vPh++Xqinq1IFsmn7iP46NzZWmimNcLhGlHOeqRuyHKm85VfnGitF/NJ+yy4ylpz9ZoD5SO5105jj7/Fn+R3UzgnbmILTiOfOvn4tLDSPOTNLABvyZ630TpNaL7l8rVtZOaJojfQGVjPk2b929KQLT15/nI7PisJM02uTSd4qFql0RrtkmLqIIKTGMieMrdqs4yD87yFS3CDsviLi4p69tZ/IUl8Q42ARMwAROAwJeQJrfpTVoTunoeAAuQ7pEsr3aM6snTTQsA9XkTVGaa7AaXsl3RNK9ePUf6cIt29X9dkO7ktKCcX5O2WGRFuWNyaeJQk6J/oEgXrvpSZHsRGGnCPaQoYRZ2Zi69JuIaQ+0yvdV5BUXbwv1zgxUeVlBGlNWXO6ygrnVKyvtVQdpuCroiafeBScOuSsL3T8LDu24Wv3sEZO62WbgYKk2ZfUiE0pxYlqCJ8GHkiXOnRXIVprEcZR5UUKAWuro/Rpp5cmn6k0euKV1xeHjCSveKOftolXb+lUc7/2K8A8rbbQQoruw+tXoW/z7u3MhmAiZgAiZQQkCTwA9QPNTkatKlcO1Y5027cZoIvoeUVjf2PVEtm5VILRhWQWk98muXV3Ga7Mn0ENCxdA1K09+Vhc+LGzYzHqVVu9K08m+XxUXZHE78ZCDSaWK9kwJzpp3GdCc9nSzlkv7r8Fv4oly5Zbv6RQz0JqWW/YHItGz5tdOVmnY+r0P5dDo+AmnHfHaUms5xWfqpk4Q6J8chnes0fdkuaZK1Ze9RuTpVfyOv9w8uyJ/2oZZfkwgtwPK2BgFF+X6TT9hFx/PTlvT86bqTjURpX05QYGIL4X8S3YqGJOHyboMi70gFlFjUe0ZJfDPBK5Ap6p6vmQIK8gxPyrwgF6++X5TE35+L12F/8ihoTr8G6bq5G8U5uqeP1uh8aoxF+jfwa0Mjtek4+AApje7tRab7YJTxtaIEDjMBEzABE/iMgCalD6K4cYarCdDD6AZ0H4rvoiNeYWuhvkwLhshT5mpyL1selaVJw1ebmPrTH8Ol4UX+H2Zp5TyE8mkeJewSdCw6H6W76JoQaQLcl2l38DUUZZ9cI4O+b410Y2qki6h58TyAIk+4Ywk7Bant72bxB+Cq7kiTdzXJCStbACjPeHQa+i16DKXlvMCxFn1ToHabdlmjb2rDjQ1UuDBp03Y36tfYLzItjiagfHlbFyXukjAtwmNnVRN6cV0TPYP09irGzDj8cyPZpkjnXmNvQZS3TQgIBhvmI7NjTZwjzfElaZoJ1gTzYnROM5lr5LmMOLX3ZbR0lm4E7l9R9EOuro289SePfFv643hzKj0OnY7uRCkv8VTcMYmU7lI0HqVp5f81yttqBES6jfKR2bGuzUjznZI0DjYBEzABE0gI6EG9HtKNV7svcRPNu4q7BR2EdLOtx84gkXZulPcl9Bx6Fr2INGnWBE+TcNkw9A56G+lNxPNIkxS5eohoEaKJzCgkG43SslWupHreRB+iXVGYFhrKfwL6LipaEKg9f0dfQY3Y4SQWL7VxeI2MXyPuY6R2aNJQj01Hom3RFUh9yp+X+wj7BpJpMaKH7d3odRRpX8U/LworWgCsSORZSOwin1yxvwkdgzSZ7KQdTGVqg/q9VgMVL5LlS/vRiF+sy2wpIv6INE4noNGo2+37NFDXm8adrimxuBZpTEyPTkKKew/pfCte18FcqMiWJDB4frUoAWEaK5Fm75I03RQ8LY05JWvzJ7ivZv5HcHWeoy+6hvM2EHnk+1jr+Eoig08rru6/qxVUtEVS/voF8REUdf8kAuyagAmYgAnUR2AIyTQp0GRwc7Qb2hgNRb1u89GBYblO6NvUFdCqaBmkSUCzpvI1merLZieBJkfNmHbe50FfyDRLM4WQp2gBMH9SlvwrIdXV37YgDZitvxsxAOrX2FkZabG4LNK1ntriHGyHdkSKr2XKGwuF0SUJdT3FhEzXWK/YcBqqCefOaGk0DdLiSX3RRsbMKG8DmUe+r/1xrA2QGEvr1mhAbJCcWCONo0zABEzABExg0BLoawEwaMG443UTuJyUmpT9vCTHZlm83ijps51uNS0w90O7Ik3k86YFUUw+9YagzAYKj7L+9Wf4NlQe52BkjYbozY3SnVEjjaNMwARMwARMYNAS8AJg0J76yjquT3802ZqAiib452fxp+F2qy1Aw7SrH5PL+Lww2qs3guOyeE0ul4iIAncg8CjoVlcE6XPJOEed/s1JVwBwI0zABEzABEygCgJeAFRBcXCXod3y2PU+Hn+6e74lx/ocYzzqhs/IaEah7URoTCzl5j8vOSCJP7CwhM8CBwKPz3rTXb7B/huL7jobbo0JmIAJmEDPERhGi/Wt949ROvGJyY/i5kY2E6iHwAwkOhfph+36cbH8VyDtlo9FtXbMie53S78tP4/W6HcSYdvj+QDp2jg7Avtwe51HH93rt2gtrgbqb076DaorNgETMAETGDwEJtDV/MQ/f1zrO+fBQ8o9bYTACBLrW/lD0LfQGqgXTG8n9BsF/ZWrhbMGL4d7DNKiRm8xjkX1/tUzkk60XuUR7e9GN9429fpvTrqRrdtkAiZgAiYwwAk8SP9eQv9A49Fj6HGkhcGz6FXU16cOJLGZwIAhsAE9uR/prYXGvxbE76GrkRYDtu4g4N9YdMd5cCtMwARMwARMwARMYMAQ0J863hqtjKYZML0aOB3RZ0DxFqBXf3MycM6Ge2ICJmACJmACJmACJmACHSDg31h0ALKrMAETGBgEtGtiMwETMAETMIGBQkC/sVgFDUfPI33CdTOymYAJmIAJmIAJmIAJmIAJmIAJmIAJmIAJmIAJmIAJmIAJmIAJmIAJmIAJmIAJmIAJmIAJmIAJmIAJmIAJmIAJmIAJmIAJmIAJmIAJmEA3EBhFIy5GD6HX0H3oQjQS2UzABEzABEzABEzABEzABAYQgV/SF/0/Neei3dCu6BIU/6Hrmfj9x3+AYDMBEzABEzABEzABEzCBXiewNx14B61a0JHRhMUi4LiCeAeZgAmYgAmYgAmYgAmYgAn0GAF96vMc2ryg3dr1vx1pEaD/0X5KNPFVgCIU2Igpj/RJI5nanHYRyl8eLYTmQS+hu9ANyGYCJmACJmACJmACJmACA43A9HTobaR5uf7fk2VR3o4m4OAsUG8Jbp+Kf/6G1kP6bugj9DHSgiAWBTHZn4IwpZ8aTYf2Qaej/rYv0YB90cZIbc3bNQRoRfROPqIDx2dTh5i1y26i4F+1q3CXawImYAIVEJiVMvRs0QPKZgIm0D0EfG3277m4nuqXQB+g9zPpXqm57DRo2szVPFJz2R1Rkb1L4ANoGXRrUQLCPkzC5wi/dsljwt+Iq++N+tv2pAF6CxHtfgK/2nVtEqa4k1GYoOpNwbAIaJM7E+VGu9rlXt6mtrtYEzABE6iCwLEUos2lF9HsVRToMkzABCoh4GuzEowtFXIEuc9Ff0G6T6ZzxVez8ItwtdG7PaplmnMuh4o2wpXvz0jla4ExFE003ZTnSqQ/G5Q2Qn5VnqaRX28B+tM2pfJ08v8MxwtkDXoZN+2DXomErYxHcVoxtdMWpfC0DfI/iy5AuvAOzjQWN59Ox8dk8T/GPQldidTmNO1tHNtMwARMoBsJLEmj0nv0Vt3YSLfJBAYhAV+b3XfSb6FJMb97Cv9sFTZxBGXF1z2n1CpXq45oRLg1M9QqrI1xv861c3RS1925OIEN2xaP+iUY7bTVKTz4yT0DFX0OtFcuXeSZn/C8DSNAi5lIMx6/zQRMwAT6IrA0CbQp0UkbRmWxq6WNpYU6Wbnr6joC/TEGuw5ClzRoGO3wtdklJ4NmzID0CVDM7U6tsGn6bP/mrGxtlM9aq+xeWQCMyzoUwNZNOvU1/AHzOfybJnFH4Veedi8AtsjqUV0noTJrZAGgMnTyHkcqtz9+10C1NhMwgR4joLei9/VDm79Ind9DemtsG9wE+msMDm7q5b33tVnOptMx+s+7Yi4rt8q3pVpMqEzNGxdHNa0XFgD6E0YpLPnnzvVqZo5XQemuu77/1wpI6du9ANgjq0d1DUdl1ugCQOX8GEX/1U+bCZiACdQioA2R8bUSOM4E2kzAY7DNgF18zxI4kpbHnE6fTc5ZUU9iw/sOyps3X+YU+YAePk5/4axuvIn0d0/1g4ewnfDMHwdtdufJyr8Nd1zFdf0+KS/qSYLsNQETMAETMAETMAET6AECI5M26k2t3pa1asdQwCHoArQ2eh5NYgNpATBJxwoONiLsFwXh7QqKifkDbajgUcrUn42SRT2fHvlfExicBKaj23rDZzOB/iDg8dcf1AdunR5PA/fc5numv+G/ahI4JvE36z2OjAeiH6CvI/3eI2wsHn0dM8nnMRHZCVd/rUd/r3RZtDTSJz2a1D6C7kJPoCJbh0DlLVq4bEe4fmgWplce2nkX2M3Q/kgXVZjKUJ68/Z2AKlZfMTF/Kl9BBcd6VfQk0vdcX0FLoZky6ZOga9BVSFw3QSugadFD6A/oHVTLmj0/RWVWUdbCFLwiehA9XFSJwyohMAelfA5pfOXfnqkCfceta/YVdD9q92d0VFGX6XWp7hn6U5NLoE9QVaa/xKA+v4B0f7L1TaAVZr04Bj3++h4T/ZXC42lS8s1em73IcdKed+/RmjQt3bwa02JTTyD/Xmgr9KdcWfNxvAZ6LRf+r8N2/gZAE7k/I00wyqRPdk5FGqh56ytvWua3ybw/SsPq8etkVGGrUchotFwfhelEFbWrr0+VtiGfJmJFefUbAf3u4I6CeE1kVkJF1ur5ScusqqzvUuiHKPp5DX6tmG3VEdDi8Xykay84azJ9KNLfFJ4FXYgiTu7TaDPUDbYMjYi2Fd03mm3jQWTUzkmUfSt+PQjLTNedFgm7lyXox/D3qXt8B+o/gDoaYRZN6uUx6PEXZ7G226kxqFZ4PE1+Lpq5NnuZ4+QEujPkCJoVz5hP8M/ZQjN/npWl5/k+ib6HX28DLkO6P2tzuNDatQDYm9reRNFR7R4ejlZBSyJN9F5CEf88/sVQasdycD26AUW6cO/N4hQvrY42T8Jexh9pw4204WpyuQDqpDW7AFAbr0ZPouhPuMcQdk8WrhOuVz4RJ1es8lbF+YkyqypLi6APUNp2+fVqy1YNAd1sNLHV9aYfrs+M1kFxvRyMX9fFG2hnNBT9A+k86F5ReiMhrlOma1bt0QJmiooq/Sbl6GasSb2Y3IZUx9moyKINSnNTUYJ+DuvE5Ovr9PFjFMw0rmoxCyS9Pgbj3Hv8xRktdjsxBlWzx9Pk/Ju5Nnud4+QUujNE80/dJyXN25q1U8gY5dRy9WfyS60dC4AvUlvaoHc53rKgBaMI0wMk0uqhW/RA16Qj0oSrOmrZkURGWrmqpxuslQVAtP8/8aR9ezM7viRLcHkuXmlnyOLkVHl+2llW9PH8pO32Nk9Au/s3oBfRkrliTuQ4eMv9chb/w1z43Fl4p5wdqehStGZS4dT4NVl/LgmTd2OkBfAmOmjAFiOtdklOTvLEIvrxJCz1ql3B68w0okv87Z586Y2j7uspM40tMSljRtTEN0y9NAY9/nTWmrN2j0G1qtfuaZ0YT81cm73GMUak5ouHotPaJG1UV2nTU5iui3h2aBLfjGk+p2dglFPLvahWBVUvALR7NiHXsF/WaMCpubRFD+8pc2nUWU08a9mRRKZQBtICoGgRMY7+ir3seJT2/ZmJoZ/+U+X5qbIstW4EStsdfl3cttYJ7EIRYqqJct5+REDwHpNEpmOpld2KpMiGvA+RWu3Sbqtu9LFBoLeHsbMxDX4tYOKG+Hf8jZjuQboPxiJZn0BpQaB6yyazZ2XxSrM96jZr9+RLE/+U2awcx4Ot1jjZhXRi1itj0OOPk9WktXsMqlkeT5OfnGauzV7jGL1eFI/mdrqntEP6/eR0qCrbgILSdm5VVcHNllP1AuCQXAfV2fVrNG5kLv1vC9J6ATAplKIFgP7+a5he5ektwDh0HVoPhVV5fqosK9r3RzzpBfI2x5+LSLstEbiX3LeWlHAe4cF9lySNxtKxSN+TzpWEp17tHmln6yr0JNIbhhvR/qjVm6cm10+haJvG81B0P/ob0puMO1HEP4J/FKrXtHh4A52eZFD/o7wLkvDUq3oizXxpBH617wx0F9KPrzSJ1C7MCqhT1s7Jl5i9jlJmu3IcPE6t0cl2jcGockY8v0QvIL0patV6cfylfV6fAy1i++MzynaOwehju8aT7iEXI127uobvQxeikagV68R4aubabBdHbaZobqL7tjZtnkY3II3HOVAVtjyFbNQm6flSpR1BYXGf1IbVnFUW3kxZrS4AVqHSddFsWeV/wo0Ohjt7FlfkaIKQruDuLkg0JWFRVrh+AzApk5ULuBUFVXl+qiwr2qrxsBM6F52AlkC21gmI63uo6A2bSn8QxbW1oALqNF2bsWjTOdOEQ2NRN33t2usBOh9qxTTh3B09itTGlzNX/rcyvx7QWoSoPY3YcBLr/rNSkklvEILFxkl4eBdI4sUttbU50KJVD7o90VJI7dLCSzf8/VCzpsnt/HVK7X+qzrQqs5GFWhGzaykjmOlhXGTtGoPbUJm4ahGryVq0Q5OPKqyXxp/eon4LHY1uR8HiRPxVWLeMQfWlXeNJC0jdK3U/2w3tii5BwfJM/ENQs9bp8XQtDY22F12b7eKoe+oz6B50ONoaHYKeRWrPi+jzaDDZ9XQ2zoW49Lu1ugB4gx6oQ2tlPRmfHUcn5e6DvltDadrnSJc3PdTTNPJ7ATApE91U6rHxJMqzbPb8VFlWPW13mtYIlE2O56bY+HxGk+xG7Cck1nj6bUGmQ7O4qwrimglS+3dA76MYw9pV2gq18kCeivxh2r2PDYnn8Rcx04Q+6tdOf9gceLQ4+RBpIpbaPBzEg0+LhEZtQTJoUhL1Vu3qvjttA41KmQ0nX4yfCfinqFFOEU8lb2UMjiH/WHQa0sQ32FS1AKDIidbt40+N3A7dia5Ao1Es7KtYAHTbGKR7hdenwpsdT3uT9x20qgrJmXjG2DouF9fMYSfGU73XZtXX5cwA0Zun/4emzsGZl+MYl3pTt0gufqAeTk/H0mfXKQ10VAzPQYs2kGeypOlNe7LIJgK0E6YTLXsKzYCKTuapSlCnaVVoa4yAFnEf1JGlyvNTZVl1NN1JKiCgiW2RrUtgTKDHFCUoCdMEa/8s7riCNJqM7Yk2REuih1Erple926J0sTsrx1silX0/asY+SjJplyomsH/AX8RsZJJ+TOL/Pn4tArRb+GgSLu8L6DCk3cO90Y2oEXuFxHrjpodnPRbn9Lp6EpNG/Oq5h0RxKbNdCIzxcy5+LQbKrIin0kZ75R+jfxqwkUlajbWDk+Mqvd0+/tTX32eKfm8TngrcbhuD6lLV40nX5huo6DrThG1npDece6D/QGX1E9WndWI81XttlvWj2etSG7SarN6CdL/WpkiYNlYOQH9GWqjpnnsiGui2Bh1Mn11jGuiwnnu7oeMbyFNXUk0e/5lTvSuTHbN8GjxTIT049RDJl/cFwuqRXgfNjvKm1Wm+TA2wWnYkkWmesgFeq4x2xO2Va1e0cf4GKsuX8WSdeas8P1WWVWfznaxNBLRzGuNQD7h6bVMSKp92pjUeiuxKApXmpKLIOsPWIt1fULRR/sfQHUgPGIVr0vnfSA/nVmwMmaOe9UsKeiRJk04UbsvCDynJt3oW/z6uHnztNNUxvp0VZGVr4q96gtliWXijTrNjMF+PFgDRllnykU0e98r4K+qeFpri0R8TrE6NwaJ+NzOetEOr+4h43VdUKGHa1IjxtUpJmr6COzWeqrg2m+Go/h+DgtPXCoBMR5jmZEpzRUH8QAw6POuv+qxxNmcDnbyJtHf1kX5G4n+JXkBTF6XVJL1K2yUr7Fnc2BGagH/xXCVPcPxWLqy/D0fQgF+jh9Ae/d2YDtWvQVfV+amyrKLu6+alC8XWfgKjkirGJP6+vJrQysYhjYci02T5i2ijosg6wk4nzXeydNpc+A+kxcSj6G2ktmuxfyDaMtO+uCejRk1jbuUsk26i1xUUsABhunfIHkTazZLpgaYdPZkWJ0UmFjLtAq2HLtVBj9v6tH+RrA+abD7eZH+aHYNNVld3tl4Zf3V3aJAkbGY8vQubB9Ay6NYSTh8m4Xrb16h1cjxVcW02w1FM7szAiFf4s6CJjuaLemZo46gZjhML4Z8p0dFongio2NU9/mcVlTkyKec+/PpctB5biURrov0LEm9D2EJIz54t0KxIpsVsOlYnBhb98yqBmmilqucNwMLkiRXczUnB5+fKUrn1PvxXJO2iSVnh1UlO2ye/JhW17Egi0zxqa2orcKD459LADvj3yupN2yb//A3UnS/jyQbyVnl+qiwruvAFPDchTfbuRXsjW/sIaEIbY7Fs8jaKNFoo5+0vBCivzleZ6easNDFRLktXFh676qpf12zYG3jSNqmNzyDVdRlqxoaTKViob0W2I4GRRg/zsNXwRHjZ/W7qJM13ImOb3E7tvp6X9OlbSV+Own9WclzL28oYzJe7IQFxHmbJRzZx3Cvjr6xrWpSJx4llCdoY3qkxmO9CK+NpJgpbDg3JF5od/xlXPDWBHZqFNeJ0cjy1em22wlFMPofmLoGjSW1cp2eWpKkneBiJdC6irKrdNyl7OtSqqYz3ULSvnjm26pwK6U23+jgfytsYAsai01A8a1VH4b1PhVVhU1DIOUiu7KlPnYn//oJ/d06O5dVk/apcWP5QD82/ofFID+JWLT/hV1t1UQuOLAAJ7GCyKs9PlWXpHMyArkBDdYAti1THs+iPyNY8gSnJ+hU0B9KDQQ9nWbqQvuHToMn+PYqQdyYL/ew72VrXUOxCzEV+XYNlbwoKip8YtBP/roUuRtEG7W7ot0fzorCr8Wi8bIb6utdEnry7VBLwcOJPvSOTg2sTf9qWMh7BQtnatWOVNKntXp2HrbJa3sXVOZLpOfNt9DsdJNaOMZgU3xZvr4y/tnS+ywttx3h6iz7fXdLvEYRvmsVp8f90SbpawZ0aT41cm+3gKAbpBk2eyegs4G1cTVybtfFk1BubOZstoI98/yBeE/dWbQ0KmDYpZEzir+U9kEgtlq5EzxUkHJmEbYj/4OS4Lm+jbwA0cf5vFCsZuSfkaro0F6/Jxtq5NOnh3ByMQyrrkjQi82uApvXJn05cCrJM/FNo+TwLJQn1gFL8dUlYJ7x7ZfXm2zZ/A5Xny3iygbxKWuX5qbKsdWhbnouOf6VG21oioIVVsNVNJewqPBG+fwQm7rpZ/O5JWHgfyOKuiYAC95AsjeqYtSC+maBhZIo2pz+qaqasNM+XknIPSiMy/4y4uglH3fMkabZNwsWszD4kQvnbvSOre+541E5bk8KDxUVJRdtk4V9IwuRtxxjMVTHxB+fRptjkyadp9XgYBUQd3TL+yvp0Y9bWdo+3ovrbPQY7MZ6iX1PjuTljqTeNVd3LVP4wVPV4auTa7CRH9XdzpI0g9fkANBjscDoZ51h972vBok0U5dFmkvLtgPoyLQCijtJ739wkWiDR60mmyHxOEq+0n0da+Wqi/zKKdOHuS1hqelDeiSJe7gtIE7zU1EntID2NlOZ5pPrCZsKj46EoLUv+XbO4ND1B/zKt1j9Gab6fZrEqV99gKe6oLKwdjnYF1b5UP+Q4bVP4tcpL08mvm05qUV6+DK1SI+9saYYSf1XnR8VXWdYalBc8Uvc3Jf1wcH0E5idZ3HDFdb8s20jclLOu79QW4kCLy1vRkDQi89+Pq/xjsuMi51ACow6N3yosPt9TufNVUWBWxnDcaOsFuXLVf01yI159T20bDiJuZBqR88d5OCMXXvVhuydfau9mKPqs+7FsWvQI0sIytXaNwbQO+TdE0abSh2A+U4PH3Tj+yrpwY8ZjoC0AOjWeguupGcfHcRePwIrcdoyneq/NTnNcDGax6XxERfy6vRhtYN+N4r50Tx8N1njQMzfSv4Ffb3T6srrufXdRShRclbt1Qcs0MfwFigde1PUwYf+DrkFaFES42rU8Su1HHER8LXeHNFPi1y5efhFwL2ETkMrTbl6VK3mKm8Q0Ma/V7r7i/nOS0j5rd618b+bylB1WcX6i7KrK0oInzk3ax6LxFXXb7ZuAxnjsJGhCr53rNZF2sv4XnYzEexyaG8m04H8MPYAWREUWNylNMsrscCLiXGrhXYXphnoxOqeKwnJlXMax2quNjqWzuBG4f0XRD7n65jK1TTiIeN2Ii2wIgZHm+KIEFYa9T1njKyyvqKg5CIz769fxz4n0qlr39YVRau0ag2kd8tf1EMxnavC4G8dfWRd0bWrMDbQFQKfGk7gelTG8A7eqTQyVG9aO8VTvtdlJjovSYT3f9RZUXzEMZNuczh2HTkf5zXA9WxR3TCKluxSNR/GMCPfXhNVjdd377qKkKLgqd9UardNq5gRUNLHTBPzvaDTSRZA3LQA0WDSpfQkpvSbVmrjI/zpS/B6ozEYScTPSKir6q4fW1Sj/kCKoUtOJfxe9il5EarParj48nSjtk/qpfukBrkGR2ngO3kOvIZX3LIq8On4bfYIasVbOT76eKspaikL/iNQXjRmNDVvrBL5PERo3WghoDOpauBbpgTY9OgkpTuNLNyjF69rUt/tldhERSnd3WQLCVa7SPF8jTTdFTUtjTkFqs66lVzO/drXTe9jXOE5tSQ6UR/pqGpH4Z83ilWbvJLwd3k4sANTufZA46Z6q8aPJ/7qoyNoxBvP11PUQzGfqouNmx19ZF24kQuPtxLIEbQxv9xjsxHg6JuN3Pu50bWTVjqLrvTY7wXFxOvgU0jxl/XZ0tsvK1EZIPA9acTV/XK3OvnX9vU8XkFaBK6NaE4s6+9twsqHk0CR1hoZzDo4MVZ6fKssaHPTb38spqELX3jfQsmgISk036e3QjkjxfZkeHLq5aZJcZpcQoTR/KkvQpeHDadcWaGe0NJoGaQGlvmgzYWaUmljGwml0GpH4l8EfDwPdh9pp7Z58pW0XK42ZzZEWObWs6jGYr6vrH4L5BpccNzr+SoqZ+B/OacydWJagjeGdGIPtHE/HwUYL2/0LGI0lbJWC8G4LqvfabCfHJYDyNLoHLZIDtD3HWlzZWicwUO59rZNwCSZgAm0noMVETGjLJn53ZGl+2PbWtFaBPnPaD+2KhhQUpQlu9FVvCIrscgKV5udFkYRtlsXrjWbRG8+SbE0F603OuKZy9namXn0IVjH+is7cjQRqTPbHAqCXx+AJMNNb6C1R3uYjQExH5CN8PBkBvRnVG+crUX7TRInPQL+Tx9YygT7vfVO1XIULMAETMIFPCfwvzt1oObQt+hVKTQ/IFZF2Ai9II7rMvwDteRDFA+pJ/PpEMEyfZRydHejBf1pE5NxzOP4y+irSrqF2D1PT2xXZuSgfNzGiwn9upaznKiyvV4rSTmZY0UIu4rrJrWr8FfUpePQHi14dg1rAj0a6Zy2E9kEyMdS9QJ+46Z72BLKVE1iKqGvRvOhnaBckE0dtgMyCtkfHI5sJmIAJmECPEVib9mqn71mkV71h+sxON39NmH8YgV3q7pS1U22V8t+wH5DEH4i/zPRgi7cAeqilky7tJH6IxqN5kK06AotTlD7HGIUuRHEeD8evc7kS0iS7W62q8af+zYi06F4T7Yjis7X78OuTttWR4tOxyaEtI6C3ezF+arna+LCVE9Dk/3lUi2HEacPE1jqBDSkimGpxZTMBEzCBthPYhBrGI/0I9Bp0FvoHegt1++SfJk58exE3zvM4jl1TxWmH6gOk+LNRX6aFz7lIO/x69S3/FegTNBaliyQObRUQuIoytAh9Hb2E9OZDehnpcyudv4NRt5renlU1/taiLF2HuvZeQZqEaXH+ItJi4B2kuHZ/gkYVPWe6dnWdxrmo5V7Uc73rbIOPrZOjGC/Z2aYN2Nq8ABiwp9YdM4HuJjAtzdsYfQ9pl1y7Or2y0612aqJ4E1oYyfRZ0zFIE3nt3OuBNjWq10aQcEd0CPoWWgPZTKCIQDvGX1E9DjMBExi4BLwAGLjn1j0zARNoI4ENKPt+pB3AV5F2prSrfDXSYsBmAu0k4PHXTrou2wQGPgFtwMVbq1mLuuvv/oqoOMwETMAEPiUwFGc1NAHdg/T5iM0EOkXA469TpF2PCfQ+gcXpwuxI3/zvjnZAsiOQNq/eRs+iZ5DNBEzABEzABEzABEzABEygxwn0+u+fehy/m28CJmACJmACJmACJmACJmACJmACJmACJmACJmACJmACJmACJmACJmACJmACJmACJmACJmACJmACJmACJmACJmACJmACJmACJmACJmACJmACJmACJmACJmACJmACJmACJmACJmACJmACJmACJmACJmACJmACJmACJmACJmACJmACJmACJmACJmACJmACJmACJmACJmACJmACJmACJmACJmACJmACJmACJmACJmACJmACJmACJmACJmACJmACJmACJmACJmACJmACJmACJmACJmACJmACJmACJmACJmACJmACJmACJmACJmACJmACJmACJmACJmACJmACJmACJmACJmACJmACJmACJmACJmACJmACJmACJmACJmACJmACJmACJmACJmACJmACJmACJmACJmACJmACJmACJmACJmACJmACJmACJmACJmACJmACJmACJmACJmACJmACJmACJmACJmACJmACJmACJmACJmACJmACJmACJmACJmACJmACJmACJmACJmACJmACJmACJmACJmACJmACJmACJmACJmACJmACJmACJmACJmACJmACJmACJmACJmACJmACJmACJmACJmACJmACJmACJmACJmACJmACJmACJmACJmACJmACJmACJmACJmACJmACJmACJmACJmACJmACJmACJmACJmACJmACJmACJmACJmACJmACJmACJmACJmACJmACJmACJmACJmACJmACJmACJmACJmACJmACJmACJmACJmACJmACJmACJmACJmACJmACJmACJmACJmACJmACJmACJmACJmACJmACJmACJmACJmACJmACJmACJmACJmACJmACJmACJmACJmACJmACJmACJmACJmACJmACJmACJmACJmACJmACJmACJmACJmACJmACJmACJmACJmACJmACJmACJmACJmACJmACJmACJmACJmACJmACJmACJmACJmACJmACJmACJmACJmACJmACJmACJmACJmACJmACJmACJmACJmACJmACJmACJmACJmACJmACJmACJmACJmACJmACJmACJmACJmACJmACJmACJmACJmACJmACJmACJmACJmACJmACJmACJmACJmACJmACJmACJmACJmACJmACJmACJmACJmACJmACJmACJmACJmACJmACJmACJmACJmACJmACJmACJmACJmACJmACJmACJmACJmACJmACJmACJmACJmACJmACJmACJmACkxIYMumhj0zABAYhgevp8xLoA/R+po9wdX+YBk2buVPhXoN2RLb6CZhv/ayc0gRMwARMoAME9EC3mYAJDG4CY+j+ODQPWh9pwh/2Gp5bkNy30NXI1hiBMSQ338aYObUJmIAJmIAJmIAJmECHCGiy/89MT+HO1qF6B0s15jtYzrT7aQImYAImYAImYAI9QGAG2qhPgGIBcGoPtLmXmmi+vXS23FYTMAETGMAEphjAfXPXTMAEGiOwBsn1zX/YteGxWwkB860EowsxARMwARNolYAXAK0SdH4TGDgERiZd0VuA65LjbvPORYOuQieiBbutcSXtGZmEdzvfpKn2moAJmIAJmIAJmIAJDFQCN9Cx+Pznni7v5EK0Tz9KVnv12dLZSH/JqJutl/h2M0e3zQRMwARMwARMwARMoAIC01NG+v3/KRWU2e4ilqaC89CHSAuBj9ElaCXUbdaLfLuNodtjAiZgAiZgAiZgAiZQIYFRlBW7/3K3qrDsdhc1jApOQ++g6MPf8OtPmnaL9TLfbmHodpiACZiACZiACZiACVRI4AjKisnzJ/jnrLDsThWl/8fgp0j/Z0H05Vb8X0H6T8360wYC3/7k57pNwARMwARMwARMwAQqJnA95cWkudu//++r67OQ4CD0XNKnB/DvgqZG/WEDiW9/8HOdJmACJmACJmACJmACFRIYqN+nTwejvdETKBY3E/B/H+lv8nfKBirfTvFzPSZgAiZgAiZgAiZgAhUT2IDyYoIst5e+/68HxVQk2gndi6KfL+L/EZodtdsGOt9283P5JmACJmACJmACJmACFRM4gvJiYlz19/8zUvYv0Quovz6/oeqJpt8BbI7Goujvm/h/hhZA7bJ28B1KY89AdyH95uEhdBFaAdlMwARMwARMwARMwARMoCaB64mNCXEV3/9vQ3n7ofNQ+oNcfZvfLbYeDbkSRb/1J1DPQoujqq1qvmvTwLfR02hPtBTaEekHz1rAib3NBEzABEzABEzABEzABAoJtPJ9unb0z0GL5koew7F22fWnOY9GMcnupgUAzZpo2jHX/ygcbXwFv95aVGVV852Dhr2M9H8fjMg1Un8F6VmkvmiRYDMBEzABEzABEzABEzCByQhsQEhMfuVuNVmK8gB9V6882oEusw2JiPK7bQEwP207Dr2RtPFa/FOiqqxqvofRMPG8uKSB387iLyyJd7AJmIAJmIAJmIAJmMAgJ3A4/Y8JeqPf/99EXn2DXsu6cQGwGA0+E72Hou9/xb8+qtqq5nsbDVSbDylp6OpZvD5pmrskjYNNwARMwARMwARMwAQGMYHr6HtMgu9pgMNKWb79+sjTTQuAL9BW7Yx/lLX9Y9xL0IqoXVYlX/1Z0w+Qztd2JQ2eI4tXmq+VpHGwCZiACZiACZiACZjAICWgCWW6C35KnRymIt0dSBPp+frI0w0LAH0PfwWKhY52x89GS6B2WtV8V6Ox0YeNSho+dZLmOyVpHGwCJmACJmACJmACJjBICeiTl5hQyt2qTg4HZ/n+Ukf6/lwAbEr7bsjaqv7pT36egBZEnbCq+W5Bo+N8qewyizQ/KUvgcBMwARMwARMwARMwgcFJ4HC6HZPFer7/186/8sQnNDvUga3TCwD9gHd79H8o+vYS/kORPo/ppFXNd1saH31at0ZH9BeClO7EGmkcZQImYAImYAImYAImMMgIaKJ8N4oJ5T199F9/LvPWJP0b+PUnLvuyTi0ApqUhe6LHUPTpSfyjUZV/1pPi6rJ28NX/rxB9G1mjFVrMKZ3+ozCbCZiACZiACUxGQDt6NhMwgcFBQP8L7jpoJqS/FqMfxYbpsxj9SUz9MDZsVjz62/Iro0UiMHMvxX03F9YfhzNTqf705X5o/qwBD+GqLxcg7YZ3ytrN962kI2X37iGkkWT6z8JsJmACJmACJmACJmACg5jAlfQ9dpBbcTXxX61Oju16A6Ad9h+jV1D0RX8icys0BeoPazffJelU9PWrJR3Uoi3S7F2SxsEmYAImYAImYAImYAIm0DYC7VoA6JOkmOj+Hf+otvWgewrWzv7LSP3Wp01FtgyBwUWMbCZgAiZgAiYwGYGy18iTJXSACZiACXQRAf3Idw90N7q9i9rVzqZoYn8z+jIaXlJRhOtzob5+11FShINNwARMwARMwARMwARMoHkCG5M1dqT1eYqtNQL69Ec8JyB9BpW38wlQ/Gn5CB+bgAmYgAmYgAmYgAmYQLsILE7BqyB9lqP/eTcWAIfj15+v1P8ivACyNU5gCFkuR2J6PNJx2JZ49KPn8Ug/3raZgAmYgAmYgAmYgAmYQEcIXEUt76HXkf4G/3OZ9P26/jOuD5D+MzFbcwRmINu5SH+x6ZnMr//pEnCqzgAAAFFJREFUWH/+cyxaAtlMwARMwARMoJRAuntUmsgRJmACJmACXUdgBC3Sm5bh6Hl0P9JvBGwmYAImYAImYAImYAImYAImYAImYAImYAIm8CmB/w/XrWr4lq2fagAAAABJRU5ErkJggg==;" vertex="1" parent="1">
          <mxGeometry x="449" y="370" width="320" height="70" as="geometry" />
        </mxCell>
        <mxCell id="r9puiUjmGgyDkKUMW15J-50" value="x-y" style="ellipse;whiteSpace=wrap;html=1;aspect=fixed;fillColor=#d5e8d4;strokeColor=#82b366;strokeWidth=2;" parent="1" vertex="1">
          <mxGeometry x="567" y="38" width="80" height="80" as="geometry" />
        </mxCell>
        <mxCell id="r9puiUjmGgyDkKUMW15J-53" value="" style="endArrow=classic;html=1;rounded=0;exitX=0;exitY=1;exitDx=0;exitDy=0;entryX=0.5;entryY=0;entryDx=0;entryDy=0;" parent="1" source="r9puiUjmGgyDkKUMW15J-50" target="r9puiUjmGgyDkKUMW15J-51" edge="1">
          <mxGeometry width="50" height="50" relative="1" as="geometry">
            <mxPoint x="640" y="140" as="sourcePoint" />
            <mxPoint x="690" y="90" as="targetPoint" />
          </mxGeometry>
        </mxCell>
        <mxCell id="r9puiUjmGgyDkKUMW15J-54" value="" style="endArrow=classic;html=1;rounded=0;exitX=1;exitY=1;exitDx=0;exitDy=0;entryX=0.5;entryY=0;entryDx=0;entryDy=0;" parent="1" source="r9puiUjmGgyDkKUMW15J-50" target="r9puiUjmGgyDkKUMW15J-52" edge="1">
          <mxGeometry width="50" height="50" relative="1" as="geometry">
            <mxPoint x="680" y="160" as="sourcePoint" />
            <mxPoint x="730" y="110" as="targetPoint" />
          </mxGeometry>
        </mxCell>
        <mxCell id="fXlGZSsW1eIFUSq92M2F-16" value="&lt;font style=&quot;font-size: 10px;&quot;&gt;Parent&lt;/font&gt;" style="text;html=1;strokeColor=none;fillColor=none;align=left;verticalAlign=middle;whiteSpace=wrap;rounded=0;" vertex="1" parent="1">
          <mxGeometry x="680" y="60" width="84" height="30" as="geometry" />
        </mxCell>
        <mxCell id="fXlGZSsW1eIFUSq92M2F-17" value="&lt;font style=&quot;font-size: 10px;&quot;&gt;Child&lt;/font&gt;" style="text;html=1;strokeColor=none;fillColor=none;align=left;verticalAlign=middle;whiteSpace=wrap;rounded=0;" vertex="1" parent="1">
          <mxGeometry x="685" y="150" width="84" height="30" as="geometry" />
        </mxCell>
      </root>
    </mxGraphModel>
  </diagram>
</mxfile>
